<svg width="15" height="19" viewBox="0 0 15 19" fill="none" xmlns="http://www.w3.org/2000/svg">
<path d="M7.44376 6.93268L6.10112 8.19454C6.27705 8.82931 6.52509 9.44106 6.84022 10.0174C7.16672 10.5871 7.5609 11.1136 8.01387 11.5853L9.75392 11.0243C10.2308 10.8713 10.7419 10.8675 11.221 11.0133C11.7001 11.1592 12.1251 11.4479 12.4411 11.8422L13.4327 13.0738C13.8352 13.5739 14.036 14.2106 13.9947 14.8555C13.9533 15.5003 13.6728 16.1052 13.2099 16.5477C11.5942 18.0892 9.10395 18.6124 7.23948 17.0804C5.59437 15.722 4.20888 14.0674 3.15213 12.1992C2.08302 10.3261 1.36931 8.26535 1.0481 6.12419C0.689693 3.70625 2.38332 1.77191 4.49106 1.11076C5.0987 0.921648 5.75444 0.976164 6.32383 1.26312C6.89322 1.55009 7.33311 2.04775 7.55332 2.65408L8.09744 4.14261C8.27303 4.621 8.30482 5.1417 8.18875 5.63851C8.07268 6.13531 7.81401 6.5858 7.44561 6.93268H7.44376Z" stroke="#098A5B" stroke-width="2"/>
</svg>
